<mxfile host="Electron" agent="Mozilla/5.0 (Windows NT 10.0; Win64; x64) AppleWebKit/537.36 (KHTML, like Gecko) draw.io/27.0.9 Chrome/134.0.6998.205 Electron/35.4.0 Safari/537.36" version="27.0.9">
  <diagram name="Page-1" id="P3dmiI1DvQWA3OdlSSRY">
    <mxGraphModel dx="1229" dy="1155" grid="1" gridSize="10" guides="1" tooltips="1" connect="1" arrows="1" fold="1" page="1" pageScale="1" pageWidth="850" pageHeight="1100" math="0" shadow="0">
      <root>
        <mxCell id="0" />
        <mxCell id="1" parent="0" />
        <mxCell id="UyAY8BEiIQMI-yi7YP8f-1" value="" style="edgeStyle=orthogonalEdgeStyle;rounded=0;orthogonalLoop=1;jettySize=auto;html=1;curved=0;" edge="1" parent="1" source="UyAY8BEiIQMI-yi7YP8f-2" target="UyAY8BEiIQMI-yi7YP8f-5">
          <mxGeometry relative="1" as="geometry">
            <Array as="points">
              <mxPoint x="80" y="300" />
              <mxPoint x="80" y="300" />
            </Array>
          </mxGeometry>
        </mxCell>
        <mxCell id="UyAY8BEiIQMI-yi7YP8f-2" value="" style="html=1;points=[[0,0,0,0,5],[0,1,0,0,-5],[1,0,0,0,5],[1,1,0,0,-5]];perimeter=orthogonalPerimeter;outlineConnect=0;targetShapes=umlLifeline;portConstraint=eastwest;newEdgeStyle={&quot;curved&quot;:0,&quot;rounded&quot;:0};" vertex="1" parent="1">
          <mxGeometry x="75" y="230" width="10" height="180" as="geometry" />
        </mxCell>
        <mxCell id="UyAY8BEiIQMI-yi7YP8f-3" value="ورود به سامانه" style="html=1;verticalAlign=bottom;endArrow=block;curved=0;rounded=0;" edge="1" parent="1">
          <mxGeometry relative="1" as="geometry">
            <mxPoint x="85" y="270" as="sourcePoint" />
            <mxPoint x="485" y="270" as="targetPoint" />
            <Array as="points">
              <mxPoint x="275" y="270" />
            </Array>
          </mxGeometry>
        </mxCell>
        <mxCell id="UyAY8BEiIQMI-yi7YP8f-4" value="نمایش داشبورد کارمند" style="html=1;verticalAlign=bottom;endArrow=open;dashed=1;endSize=8;curved=0;rounded=0;" edge="1" parent="1">
          <mxGeometry relative="1" as="geometry">
            <mxPoint x="85" y="300" as="targetPoint" />
            <mxPoint x="485" y="300" as="sourcePoint" />
            <Array as="points">
              <mxPoint x="285" y="300" />
            </Array>
          </mxGeometry>
        </mxCell>
        <mxCell id="UyAY8BEiIQMI-yi7YP8f-5" value="کارمند" style="whiteSpace=wrap;html=1;" vertex="1" parent="1">
          <mxGeometry x="20" y="140" width="120" height="60" as="geometry" />
        </mxCell>
        <mxCell id="UyAY8BEiIQMI-yi7YP8f-6" value="" style="edgeStyle=orthogonalEdgeStyle;rounded=0;orthogonalLoop=1;jettySize=auto;html=1;curved=0;" edge="1" parent="1" source="UyAY8BEiIQMI-yi7YP8f-7" target="UyAY8BEiIQMI-yi7YP8f-8">
          <mxGeometry relative="1" as="geometry">
            <Array as="points">
              <mxPoint x="490" y="300" />
              <mxPoint x="490" y="300" />
            </Array>
          </mxGeometry>
        </mxCell>
        <mxCell id="UyAY8BEiIQMI-yi7YP8f-7" value="" style="html=1;points=[[0,0,0,0,5],[0,1,0,0,-5],[1,0,0,0,5],[1,1,0,0,-5]];perimeter=orthogonalPerimeter;outlineConnect=0;targetShapes=umlLifeline;portConstraint=eastwest;newEdgeStyle={&quot;curved&quot;:0,&quot;rounded&quot;:0};" vertex="1" parent="1">
          <mxGeometry x="485" y="250" width="10" height="130" as="geometry" />
        </mxCell>
        <mxCell id="UyAY8BEiIQMI-yi7YP8f-8" value="سامانه آموزشگاه" style="whiteSpace=wrap;html=1;" vertex="1" parent="1">
          <mxGeometry x="430" y="140" width="120" height="60" as="geometry" />
        </mxCell>
        <mxCell id="UyAY8BEiIQMI-yi7YP8f-9" value="وارد کردن اطلاعات دانش آموز جدید" style="html=1;verticalAlign=bottom;endArrow=block;curved=0;rounded=0;" edge="1" parent="1">
          <mxGeometry relative="1" as="geometry">
            <mxPoint x="85" y="329.65999999999997" as="sourcePoint" />
            <mxPoint x="485" y="329.65999999999997" as="targetPoint" />
            <Array as="points">
              <mxPoint x="295" y="329.65999999999997" />
            </Array>
          </mxGeometry>
        </mxCell>
        <mxCell id="UyAY8BEiIQMI-yi7YP8f-10" value="ثبت اطلاعات دانش آموز و نشان دادن تاییدیه" style="html=1;verticalAlign=bottom;endArrow=open;dashed=1;endSize=8;curved=0;rounded=0;" edge="1" parent="1">
          <mxGeometry relative="1" as="geometry">
            <mxPoint x="85" y="360" as="targetPoint" />
            <mxPoint x="485" y="360" as="sourcePoint" />
            <Array as="points">
              <mxPoint x="335" y="360" />
            </Array>
          </mxGeometry>
        </mxCell>
        <mxCell id="UyAY8BEiIQMI-yi7YP8f-11" value="&amp;nbsp;ثبت نام دانش آموز جدید توسط کارکنان" style="text;html=1;align=center;verticalAlign=middle;whiteSpace=wrap;rounded=0;" vertex="1" parent="1">
          <mxGeometry x="205" y="140" width="110" height="30" as="geometry" />
        </mxCell>
        <mxCell id="UyAY8BEiIQMI-yi7YP8f-12" value="" style="edgeStyle=orthogonalEdgeStyle;rounded=0;orthogonalLoop=1;jettySize=auto;html=1;curved=0;" edge="1" parent="1" source="UyAY8BEiIQMI-yi7YP8f-13" target="UyAY8BEiIQMI-yi7YP8f-14">
          <mxGeometry relative="1" as="geometry">
            <Array as="points">
              <mxPoint x="745" y="300" />
              <mxPoint x="745" y="300" />
            </Array>
          </mxGeometry>
        </mxCell>
        <mxCell id="UyAY8BEiIQMI-yi7YP8f-13" value="" style="html=1;points=[[0,0,0,0,5],[0,1,0,0,-5],[1,0,0,0,5],[1,1,0,0,-5]];perimeter=orthogonalPerimeter;outlineConnect=0;targetShapes=umlLifeline;portConstraint=eastwest;newEdgeStyle={&quot;curved&quot;:0,&quot;rounded&quot;:0};" vertex="1" parent="1">
          <mxGeometry x="740" y="230" width="10" height="180" as="geometry" />
        </mxCell>
        <mxCell id="UyAY8BEiIQMI-yi7YP8f-14" value="شخص" style="whiteSpace=wrap;html=1;" vertex="1" parent="1">
          <mxGeometry x="685" y="140" width="120" height="60" as="geometry" />
        </mxCell>
        <mxCell id="UyAY8BEiIQMI-yi7YP8f-15" value="" style="shape=umlActor;verticalLabelPosition=bottom;verticalAlign=top;html=1;outlineConnect=0;" vertex="1" parent="1">
          <mxGeometry x="55" y="60" width="30" height="60" as="geometry" />
        </mxCell>
        <mxCell id="UyAY8BEiIQMI-yi7YP8f-16" value="" style="shape=umlActor;verticalLabelPosition=bottom;verticalAlign=top;html=1;outlineConnect=0;" vertex="1" parent="1">
          <mxGeometry x="740" y="70" width="30" height="60" as="geometry" />
        </mxCell>
        <mxCell id="UyAY8BEiIQMI-yi7YP8f-17" value="مراجعه برای ثبت نام" style="html=1;verticalAlign=bottom;endArrow=block;curved=0;rounded=0;" edge="1" parent="1">
          <mxGeometry relative="1" as="geometry">
            <mxPoint x="740" y="240" as="sourcePoint" />
            <mxPoint x="85" y="240" as="targetPoint" />
            <Array as="points">
              <mxPoint x="285" y="240" />
            </Array>
          </mxGeometry>
        </mxCell>
        <mxCell id="UyAY8BEiIQMI-yi7YP8f-18" value="ارائه نام کاربری و رمز عبور برای ورود به سایت و فرستادن پیش مدیر برای آزمون تعیین سطح&amp;nbsp;" style="html=1;verticalAlign=bottom;endArrow=block;curved=0;rounded=0;" edge="1" parent="1">
          <mxGeometry relative="1" as="geometry">
            <mxPoint x="85" y="400.0000000000001" as="sourcePoint" />
            <mxPoint x="740" y="400.0000000000001" as="targetPoint" />
            <Array as="points">
              <mxPoint x="305" y="400" />
            </Array>
          </mxGeometry>
        </mxCell>
      </root>
    </mxGraphModel>
  </diagram>
</mxfile>
